<?xml version="1.0" encoding="UTF-8"?>
<svg width="48px" height="46px" viewBox="0 0 48 46" version="1.1" xmlns="http://www.w3.org/2000/svg" xmlns:xlink="http://www.w3.org/1999/xlink">
    <title>Combined Shape</title>
    <g id="Blocks" stroke="none" stroke-width="1" fill="none" fill-rule="evenodd" opacity="0.8">
        <g id="04-Blocks/Site-Footer/01" transform="translate(-116.000000, -72.000000)" fill="#FFFFFF">
            <g id="Group-8" transform="translate(100.000000, 55.000000)">
                <path d="M59.425,32 C61.6,32 64,33.35 64,35.75 L64,35.75 L64,51.95 C64,54.35 61.675,56.75 59.425,56.75 L59.425,56.75 L57.25,56.75 L57.25,61.475 C57.25,61.775 57.1,62 56.8,62.15 C56.725,62.225 56.575,62.225 56.5,62.225 C56.275,62.225 56.125,62.225 55.975,62.075 L55.975,62.075 L49.9,56.75 L35.35,56.75 C32.875,56.75 31,54.2 31,51.95 L31,51.95 L31,35.75 C31,33.575 32.8,32 35.35,32 L35.35,32 Z M59.425,33.5 L35.35,33.5 C33.925,33.5 32.5,34.175 32.5,35.75 L32.5,35.75 L32.5,51.95 C32.5,53.6 33.925,55.25 35.35,55.25 L35.35,55.25 L50.2315972,55.2506944 C50.4,55.2541667 50.525,55.275 50.65,55.4 L50.65,55.4 L55.75,59.825 L55.75,56 C55.75,55.55 56.05,55.25 56.5,55.25 L56.5,55.25 L59.425,55.25 C60.85,55.25 62.5,53.525 62.5,51.95 L62.5,51.95 L62.5,35.75 C62.5,34.325 60.925,33.5 59.425,33.5 L59.425,33.5 Z M57.25,49.25 C57.7,49.25 58,49.55 58,50 C58,50.45 57.7,50.75 57.25,50.75 L57.25,50.75 L37.75,50.75 C37.3,50.75 37,50.45 37,50 C37,49.55 37.3,49.25 37.75,49.25 L37.75,49.25 Z M44.65,17 C47.2,17 49,18.575 49,20.825 L49,20.825 L49,29 C49,29.45 48.7,29.75 48.25,29.75 C47.8,29.75 47.5,29.45 47.5,29 L47.5,29 L47.5,20.825 C47.5,19.25 46,18.5 44.65,18.5 L44.65,18.5 L20.575,18.5 C19.075,18.5 17.5,19.4 17.5,20.825 L17.5,20.825 L17.5,37.025 C17.5,38.525 19.075,40.25 20.575,40.25 L20.575,40.25 L23.5,40.25 C23.95,40.25 24.25,40.55 24.25,41 L24.25,41 L24.25,45.875 L27.7,42.725 C28,42.5 28.45,42.5 28.75,42.8 C28.975,43.1 28.975,43.55 28.675,43.85 L28.675,43.85 L24.025,48.125 C23.875,48.275 23.65,48.35 23.5,48.35 C23.425,48.35 23.275,48.35 23.2,48.275 C22.9,48.2 22.75,47.9 22.75,47.6 L22.75,47.6 L22.75,41.75 L20.575,41.75 C18.25,41.75 16,39.425 16,36.95 L16,36.95 L16,20.825 C16,18.425 18.325,17 20.575,17 L20.575,17 Z M57.25,43.25 C57.7,43.25 58,43.55 58,44 C58,44.45 57.7,44.75 57.25,44.75 L57.25,44.75 L48.25,44.75 C47.8,44.75 47.5,44.45 47.5,44 C47.5,43.55 47.8,43.25 48.25,43.25 L48.25,43.25 Z M44.5,43.25 C44.95,43.25 45.25,43.55 45.25,44 C45.25,44.45 44.95,44.75 44.5,44.75 L44.5,44.75 L37.75,44.75 C37.3,44.75 37,44.45 37,44 C37,43.55 37.3,43.25 37.75,43.25 L37.75,43.25 Z M57.25,37.25 C57.7,37.25 58,37.55 58,38 C58,38.45 57.7,38.75 57.25,38.75 L57.25,38.75 L37.75,38.75 C37.3,38.75 37,38.45 37,38 C37,37.55 37.3,37.25 37.75,37.25 L37.75,37.25 Z M28.75,35 C29.2,35 29.5,35.3 29.5,35.75 C29.5,36.2 29.2,36.5 28.75,36.5 L28.75,36.5 L22,36.5 C21.55,36.5 21.25,36.2 21.25,35.75 C21.25,35.3 21.55,35 22,35 L22,35 Z M31.75,29 C32.2,29 32.5,29.3 32.5,29.75 C32.5,30.2 32.2,30.5 31.75,30.5 L31.75,30.5 L22,30.5 C21.55,30.5 21.25,30.2 21.25,29.75 C21.25,29.3 21.55,29 22,29 L22,29 Z M42.25,29 C42.7,29 43,29.3 43,29.75 C43,30.2 42.7,30.5 42.25,30.5 L42.25,30.5 L36.25,30.5 C35.8,30.5 35.5,30.2 35.5,29.75 C35.5,29.3 35.8,29 36.25,29 L36.25,29 Z M42.25,23 C42.7,23 43,23.3 43,23.75 C43,24.2 42.7,24.5 42.25,24.5 L42.25,24.5 L22,24.5 C21.55,24.5 21.25,24.2 21.25,23.75 C21.25,23.3 21.55,23 22,23 L22,23 Z" id="Combined-Shape"></path>
            </g>
        </g>
    </g>
</svg>