<svg xmlns="http://www.w3.org/2000/svg" viewBox="0 0 997.21 138.9"><defs><style>.cls-2{fill:#34b55a}.cls-3{fill:#333132}</style></defs><g id="Layer_2" data-name="Layer 2"><g id="Layer_1-2" data-name="Layer 1"><ellipse cx="718.66" cy="70.91" rx="44.58" ry="44.59" fill="#fff"/><path class="cls-2" d="M723.63 62.88l-29.32-29.32a44.64 44.64 0 00-19.5 29.32zM723.63 78.94h-48.82a44.62 44.62 0 0019.5 29.31z"/><path class="cls-2" d="M718.68 26.32a44.9 44.9 0 00-8.17.75L743 59.56l11.36 11.35L743 82.26l-32.49 32.49a44.59 44.59 0 108.17-88.43"/><path class="cls-3" d="M13.7 64.61v43.89H0V7.3h34.64q16.62 0 25.36 7.38t8.79 21.42a23 23 0 01-4.07 13.56 27.55 27.55 0 01-11.86 9.18q8.34 2.71 12 8.8t3.65 15.06v9.53a31.91 31.91 0 001 8.48 12.67 12.67 0 003.62 6.12v1.67H59.05a11.3 11.3 0 01-3.48-7 57.52 57.52 0 01-.76-9.46v-9.2q0-8.2-4.8-13.22t-12.87-5zm0-10.78h19.55q11.61 0 16.72-4.41T55.09 36q0-8.55-5-13.25T34.64 18H13.7zM103.56 14h-13.7V0h13.7zm0 94.52h-13.7V33.25h13.7zM116.93 72.27q0-18.16 7.75-29.29t21.67-11.12a26.49 26.49 0 0112.59 2.88 25.51 25.51 0 019.11 8.31l1.67-9.8h10.92v75.67q0 14.46-8.42 22.22T148 138.9a50.68 50.68 0 01-11.72-1.5 45.54 45.54 0 01-11.09-4.07l2.08-10.64a39.73 39.73 0 009.56 3.37 49.07 49.07 0 0011 1.29q10 0 14.57-4.56t4.56-13.87v-8.56a24.23 24.23 0 01-8.84 7.17 27.54 27.54 0 01-11.91 2.47q-13.77 0-21.53-10t-7.75-26.25zm13.7 1.46q0 11.33 4.66 18.22t14.4 6.88A18.09 18.09 0 00160.05 96a21.39 21.39 0 006.89-8V53.42a21.35 21.35 0 00-6.89-7.62 18.05 18.05 0 00-10.22-2.8q-9.81 0-14.51 8.14t-4.69 21.15zM209.8 43.33a27.77 27.77 0 019.56-8.45 26.23 26.23 0 0112.56-3q12 0 18.74 7.23t6.71 22.25v47.14h-13.7V61.21q0-9.33-4-13.78T227.74 43a22.39 22.39 0 00-10.64 2.4 19.32 19.32 0 00-7.3 6.72v56.4h-13.7V0h13.7zM290.84 15.09v18.16h14.26V43.4h-14.26v45.7q0 5.28 2.19 7.44a7.9 7.9 0 005.81 2.15 12.62 12.62 0 002.64-.31 20.34 20.34 0 002.43-.66l1.88 9.39a12 12 0 01-4.52 2 22.9 22.9 0 01-5.91.8q-8.34 0-13.29-5t-4.93-15.81V43.4h-12V33.25h12V15.09zM439.96 108.5h-13.7L377.5 31.16l-.41.14v77.2h-13.71V7.23h13.71l48.75 77.28.42-.14V7.23h13.7V108.5zM485.57 110q-16.2 0-25.28-10.36t-9.07-27.26v-3.11q0-16.2 9.35-26.81t22.85-10.6q15.09 0 22.64 9.38t7.54 25v7.24h-48.13l-.21.35q0 11.33 5 18.39t15.3 7.06a34.51 34.51 0 0012.21-2 27.28 27.28 0 009-5.46l5.35 8.9a32.91 32.91 0 01-10.64 6.58 42.47 42.47 0 01-15.91 2.7m-2.15-67.32a14.88 14.88 0 00-11.86 5.53 26.16 26.16 0 00-5.74 14.15l.14.35h33.94v-1.16q0-8.2-4-13.56t-12.45-5.35M544.86 15.09v18.16h14.26V43.4h-14.26v45.7q0 5.28 2.19 7.44a7.93 7.93 0 005.81 2.15 12.71 12.71 0 002.65-.31 20.34 20.34 0 002.43-.66l1.88 9.39a12 12 0 01-4.52 2 23 23 0 01-5.91.8q-8.35 0-13.29-5t-4.94-15.81V43.4h-12V33.25h12V15.09zM595.17 81.1l1.74 9.67h.42l1.81-9.67 15.02-47.85h10.99l15.1 47.85 1.94 10.78h.42l2.23-10.78 11.13-47.85h14.32l-21.84 75.25h-11.06l-14.88-45.83-2.85-11.97h-.42l-2.64 11.97-14.61 45.83h-11.06l-21.84-75.25h14.26l11.82 47.85zM808.73 45.35l-7-.42a15.72 15.72 0 00-9.14 2.57 16.51 16.51 0 00-5.74 7.24v53.76h-13.7V33.25h12.24l1.32 11a26.18 26.18 0 017.89-9.12 18.46 18.46 0 0110.82-3.26 17.18 17.18 0 012.92.24 19.9 19.9 0 012.3.52zM843.78 73.8h-7.02v34.7h-13.7V0h13.7v62.88h6.88l22.61-29.63h16.41l-27.33 34.7 29.7 40.55h-16.21l-25.04-34.7zM935.54 88.26a9.11 9.11 0 00-3.44-7.37q-3.44-2.85-13-5-13.29-2.85-20.41-8a16.13 16.13 0 01-7.13-13.77q0-9.18 7.82-15.72t20.28-6.53q12.79 0 20.72 7T947.92 55l-.14.41h-13.07q0-4.86-4.28-8.83a15.3 15.3 0 00-10.81-4q-7.25 0-10.82 3.26a10.2 10.2 0 00-3.58 7.79 8.26 8.26 0 003.09 6.89Q911.42 63 921.08 65q13.83 2.93 21 8.28a16.66 16.66 0 017.17 14 19.81 19.81 0 01-8.11 16.34Q933 110 920 110q-14.38 0-22.67-7.3t-7.86-17l.14-.42h13.08q.35 7.3 5.42 10.68A21 21 0 00920 99.25q7.31 0 11.45-3.09a9.5 9.5 0 004.13-7.9M997.21 49.65a17.67 17.67 0 01-35.33 0c0-9.65 7.86-17.19 17.82-17.19a17.2 17.2 0 0117.51 17.19zm-30.93 0a13.39 13.39 0 0013.42 13.74c7.44.1 13.11-6.09 13.11-13.63s-5.67-13.84-13.32-13.84c-7.44 0-13.21 6.18-13.21 13.73zm10.59 8.91h-4V41.37a46.25 46.25 0 016.6-.53c3.25 0 4.72.53 5.87 1.37a4.32 4.32 0 011.78 3.67c0 2.09-1.57 3.46-3.56 4.09v.2c1.68.53 2.52 1.89 3 4.2a14.92 14.92 0 001.26 4.19h-4.2c-.52-.63-.83-2.09-1.36-4.19-.31-1.78-1.36-2.62-3.56-2.62h-1.89zm.1-9.64h1.89c2.2 0 4-.74 4-2.52 0-1.57-1.16-2.62-3.67-2.62A9.33 9.33 0 00977 44z"/></g></g></svg>